{
    "asset" : {
        "generator" : "Khronos glTF Blender I/O v1.0.5",
        "version" : "2.0"
    },
    "scene" : 0,
    "scenes" : [
        {
            "name" : "Scene",
            "nodes" : [
                0
            ]
        }
    ],
    "nodes" : [
        {
            "mesh" : 0,
            "name" : "Cube",
            "rotation" : [
                -0.7071067690849304,
                0,
                0,
                0.7071067690849304
            ],
            "scale" : [
                0.39893999695777893,
                0.39893999695777893,
                0.39893999695777893
            ],
            "translation" : [
                0,
                0,
                -0.21839633584022522
            ]
        }
    ],
    "meshes" : [
        {
            "name" : "Cube.001",
            "primitives" : [
                {
                    "attributes" : {
                        "POSITION" : 0,
                        "NORMAL" : 1,
                        "TEXCOORD_0" : 2
                    },
                    "indices" : 3
                }
            ]
        }
    ],
    "accessors" : [
        {
            "bufferView" : 0,
            "componentType" : 5126,
            "count" : 385,
            "max" : [
                0.3339437246322632,
                1.25311279296875,
                0.09088753908872604
            ],
            "min" : [
                -0.3339436650276184,
                -1,
                -0.09088753908872604
            ],
            "type" : "VEC3"
        },
        {
            "bufferView" : 1,
            "componentType" : 5126,
            "count" : 385,
            "type" : "VEC3"
        },
        {
            "bufferView" : 2,
            "componentType" : 5126,
            "count" : 385,
            "type" : "VEC2"
        },
        {
            "bufferView" : 3,
            "componentType" : 5123,
            "count" : 576,
            "type" : "SCALAR"
        }
    ],
    "bufferViews" : [
        {
            "buffer" : 0,
            "byteLength" : 4620,
            "byteOffset" : 0
        },
        {
            "buffer" : 0,
            "byteLength" : 4620,
            "byteOffset" : 4620
        },
        {
            "buffer" : 0,
            "byteLength" : 3080,
            "byteOffset" : 9240
        },
        {
            "buffer" : 0,
            "byteLength" : 1152,
            "byteOffset" : 12320
        }
    ],
    "buffers" : [
        {
            "byteLength" : 13472,
            "uri" : "data:application/octet-stream;base64,"
        }
    ]
}
